<?xml version="1.0" encoding="utf-8"?>
<!-- Generator: Adobe Illustrator 27.8.1, SVG Export Plug-In . SVG Version: 6.00 Build 0)  -->
<svg version="1.1" id="Слой_1" xmlns="http://www.w3.org/2000/svg" xmlns:xlink="http://www.w3.org/1999/xlink" x="0px" y="0px"
	 viewBox="0 0 841.89 316.4" style="enable-background:new 0 0 841.89 316.4;" xml:space="preserve">
<style type="text/css">
	.st0{fill:#69FFF4;}
	.st1{fill:#23D0C8;}
	.st2{fill:#FFFFFF;}
</style>
<g>
	<g>
		<path d="M419.08,96.38c6.89,3.1,12.2,7.53,15.94,13.29c3.74,5.76,5.61,12.53,5.61,20.3c0,7.78-1.87,14.52-5.61,20.23
			c-3.74,5.71-9.06,10.11-15.94,13.21c-6.89,3.1-15.01,4.65-24.36,4.65h-18.01v27.02h-29.23V91.73h47.24
			C404.07,91.73,412.19,93.28,419.08,96.38z M406.53,141.11c3.05-2.61,4.58-6.32,4.58-11.15c0-4.82-1.53-8.56-4.58-11.22
			c-3.05-2.66-7.58-3.99-13.58-3.99h-16.24v30.26h16.24C398.95,145.02,403.48,143.72,406.53,141.11z"/>
		<path d="M499.98,167.61h-15.94v27.46h-29.23V91.73h47.24c9.35,0,17.47,1.55,24.36,4.65c6.89,3.1,12.2,7.53,15.94,13.29
			c3.74,5.76,5.61,12.53,5.61,20.3c0,7.48-1.75,14-5.24,19.56c-3.5,5.56-8.49,9.92-14.99,13.07l22.29,32.48h-31.3L499.98,167.61z
			 M513.86,118.75c-3.05-2.66-7.58-3.99-13.58-3.99h-16.24v30.26h16.24c6,0,10.53-1.3,13.58-3.91c3.05-2.61,4.58-6.32,4.58-11.15
			C518.44,125.15,516.91,121.4,513.86,118.75z"/>
		<path d="M586.72,190.2c-8.71-4.63-15.55-11.02-20.52-19.19c-4.97-8.17-7.46-17.37-7.46-27.61c0-10.23,2.48-19.44,7.46-27.61
			c4.97-8.17,11.81-14.57,20.52-19.19c8.71-4.63,18.53-6.94,29.45-6.94s20.74,2.31,29.45,6.94c8.71,4.63,15.55,11.02,20.52,19.19
			c4.97,8.17,7.45,17.37,7.45,27.61c0,10.24-2.49,19.44-7.45,27.61c-4.97,8.17-11.81,14.57-20.52,19.19
			c-8.71,4.63-18.53,6.94-29.45,6.94S595.43,194.83,586.72,190.2z M630.34,169.24c4.23-2.46,7.58-5.93,10.04-10.41
			c2.46-4.48,3.69-9.62,3.69-15.43c0-5.81-1.23-10.95-3.69-15.43c-2.46-4.48-5.81-7.95-10.04-10.41c-4.23-2.46-8.96-3.69-14.17-3.69
			c-5.22,0-9.94,1.23-14.17,3.69c-4.23,2.46-7.58,5.93-10.04,10.41c-2.46,4.48-3.69,9.62-3.69,15.43c0,5.81,1.23,10.95,3.69,15.43
			c2.46,4.48,5.81,7.95,10.04,10.41c4.23,2.46,8.95,3.69,14.17,3.69C621.38,172.93,626.11,171.7,630.34,169.24z"/>
		<path d="M718.18,114.32v22.74h45.62v22.59h-45.62v35.43h-29.23V91.73H770v22.59H718.18z"/>
		<path d="M783.73,91.73h29.23v103.34h-29.23V91.73z"/>
	</g>
	<g>
		<path d="M365.3,221.2H350.7l0.04,24.91h-2.86v-27.41h17.43V221.2z"/>
		<path d="M382.89,227.37c1.44,1.35,2.15,3.34,2.15,5.97v12.77h-2.66v-3.21c-0.63,1.07-1.55,1.91-2.76,2.51
			c-1.21,0.6-2.66,0.9-4.33,0.9c-2.3,0-4.13-0.55-5.48-1.64c-1.36-1.1-2.04-2.55-2.04-4.35c0-1.75,0.63-3.16,1.9-4.23
			c1.27-1.07,3.28-1.61,6.05-1.61h6.54v-1.25c0-1.77-0.5-3.13-1.49-4.05c-0.99-0.93-2.44-1.39-4.35-1.39
			c-1.31,0-2.56,0.22-3.76,0.65c-1.2,0.43-2.23,1.02-3.09,1.78l-1.25-2.08c1.04-0.89,2.3-1.57,3.76-2.06c1.46-0.48,3-0.72,4.62-0.72
			C379.39,225.35,381.45,226.02,382.89,227.37z M379.75,243.03c1.12-0.72,1.96-1.76,2.51-3.11v-3.37h-6.46
			c-3.52,0-5.29,1.23-5.29,3.68c0,1.2,0.46,2.15,1.37,2.84c0.91,0.69,2.19,1.04,3.84,1.04
			C377.29,244.11,378.63,243.75,379.75,243.03z"/>
		<path d="M405.43,237.14c0.8,0.84,1.19,1.85,1.19,3.05c0,1.2-0.41,2.27-1.23,3.21c-0.82,0.94-1.94,1.66-3.35,2.17
			c-1.41,0.51-2.96,0.76-4.66,0.76c-1.49,0-2.95-0.22-4.39-0.65c-1.44-0.43-2.69-1.06-3.76-1.9l0.94-2.08
			c0.94,0.7,2.04,1.25,3.29,1.64c1.25,0.39,2.52,0.59,3.8,0.59c1.91,0,3.47-0.36,4.68-1.08c1.21-0.72,1.82-1.69,1.82-2.92
			c0-1.1-0.5-1.95-1.49-2.57c-0.99-0.61-2.35-0.92-4.07-0.92h-3.52v-2.04h3.37c1.54,0,2.78-0.29,3.72-0.88
			c0.94-0.59,1.41-1.38,1.41-2.37c0-1.1-0.53-1.96-1.59-2.59c-1.06-0.63-2.43-0.94-4.13-0.94c-2.22,0-4.41,0.56-6.58,1.68
			l-0.78-2.15c2.45-1.28,5-1.92,7.64-1.92c1.57,0,2.98,0.23,4.25,0.68c1.27,0.46,2.26,1.1,2.98,1.94c0.72,0.84,1.08,1.8,1.08,2.9
			c0,1.04-0.36,1.97-1.08,2.78c-0.72,0.81-1.69,1.41-2.92,1.8C403.5,235.71,404.63,236.3,405.43,237.14z"/>
		<path d="M412.93,225.51h2.78v16.37l13.75-16.37h2.47v20.6h-2.78v-16.37l-13.71,16.37h-2.51V225.51z"/>
		<path d="M461.57,243.33c-2.11,1.83-5.1,2.82-8.97,2.98v7.4h-2.7v-7.36c-3.84-0.16-6.81-1.16-8.91-3c-2.1-1.84-3.15-4.37-3.15-7.58
			c0-3.18,1.05-5.68,3.15-7.48c2.1-1.8,5.07-2.78,8.91-2.94v-8.3h2.7v8.3c3.86,0.18,6.85,1.18,8.97,2.98
			c2.12,1.8,3.17,4.28,3.17,7.44C464.74,238.98,463.68,241.5,461.57,243.33z M442.95,241.52c1.58,1.38,3.9,2.17,6.95,2.35v-16.06
			c-3.03,0.16-5.34,0.92-6.93,2.29c-1.59,1.37-2.39,3.26-2.39,5.66C440.58,238.22,441.37,240.14,442.95,241.52z M459.59,241.56
			c1.61-1.38,2.41-3.32,2.41-5.8c0-2.43-0.8-4.32-2.41-5.68c-1.61-1.36-3.94-2.11-6.99-2.27v16.06
			C455.65,243.72,457.98,242.95,459.59,241.56z"/>
		<path d="M470.62,225.51h2.78v16.37l13.75-16.37h2.47v20.6h-2.78v-16.37l-13.71,16.37h-2.51V225.51z"/>
		<path d="M505.04,236.94h-4.7v9.16h-2.78v-20.6h2.78v9.05h4.74l7.24-9.05h3.02l-8.11,9.99l8.69,10.61h-3.29L505.04,236.94z"/>
		<path d="M533.2,227.37c1.44,1.35,2.15,3.34,2.15,5.97v12.77h-2.66v-3.21c-0.63,1.07-1.55,1.91-2.76,2.51
			c-1.21,0.6-2.66,0.9-4.33,0.9c-2.3,0-4.13-0.55-5.48-1.64s-2.04-2.55-2.04-4.35c0-1.75,0.63-3.16,1.9-4.23
			c1.27-1.07,3.28-1.61,6.05-1.61h6.54v-1.25c0-1.77-0.5-3.13-1.49-4.05c-0.99-0.93-2.44-1.39-4.35-1.39
			c-1.31,0-2.56,0.22-3.76,0.65c-1.2,0.43-2.23,1.02-3.09,1.78l-1.25-2.08c1.04-0.89,2.3-1.57,3.76-2.06c1.46-0.48,3-0.72,4.62-0.72
			C529.7,225.35,531.76,226.02,533.2,227.37z M530.06,243.03c1.12-0.72,1.96-1.76,2.51-3.11v-3.37h-6.46
			c-3.52,0-5.29,1.23-5.29,3.68c0,1.2,0.46,2.15,1.37,2.84c0.91,0.69,2.19,1.04,3.84,1.04C527.6,244.11,528.94,243.75,530.06,243.03
			z"/>
		<path d="M564.22,243.68v7.6h-2.62v-5.17h-18.84v-20.6h2.78v18.17h12.57v-18.17h2.78v18.17H564.22z"/>
		<path d="M569.54,225.51h2.78v16.37l13.75-16.37h2.47v20.6h-2.78v-16.37l-13.71,16.37h-2.51V225.51z"/>
		<path d="M612.31,225.51v20.6h-2.55v-6.81h-6.46h-0.78l-4.78,6.81h-3.02l5.13-7.21c-1.59-0.44-2.82-1.2-3.68-2.27
			c-0.86-1.07-1.29-2.43-1.29-4.07c0-2.3,0.78-4.05,2.35-5.25c1.57-1.2,3.71-1.8,6.42-1.8H612.31z M603.53,237.22h6.23v-9.24h-6.03
			c-4.02,0-6.03,1.55-6.03,4.66C597.7,235.69,599.64,237.22,603.53,237.22z"/>
		<path d="M633.61,244.95c-1.59-0.9-2.85-2.15-3.76-3.74c-0.91-1.59-1.37-3.39-1.37-5.4c0-2.01,0.46-3.81,1.37-5.4
			c0.91-1.59,2.17-2.83,3.76-3.72c1.59-0.89,3.38-1.33,5.36-1.33c1.98,0,3.77,0.44,5.37,1.33c1.59,0.89,2.84,2.13,3.74,3.72
			c0.9,1.59,1.35,3.39,1.35,5.4c0,2.01-0.45,3.81-1.35,5.4c-0.9,1.59-2.15,2.84-3.74,3.74c-1.59,0.9-3.38,1.35-5.37,1.35
			C636.99,246.3,635.2,245.85,633.61,244.95z M642.91,242.84c1.16-0.67,2.07-1.61,2.72-2.84c0.65-1.23,0.98-2.62,0.98-4.19
			c0-1.57-0.33-2.96-0.98-4.19c-0.65-1.23-1.56-2.17-2.72-2.84c-1.16-0.67-2.47-1-3.94-1c-1.46,0-2.77,0.33-3.94,1
			c-1.16,0.67-2.08,1.61-2.74,2.84c-0.67,1.23-1,2.62-1,4.19c0,1.57,0.33,2.96,1,4.19c0.67,1.23,1.58,2.17,2.74,2.84
			c1.16,0.67,2.47,1,3.94,1C640.44,243.83,641.75,243.5,642.91,242.84z"/>
		<path d="M670.48,227.29c1.5,0.85,2.67,2.04,3.5,3.56s1.25,3.27,1.25,5.23c0,2.01-0.44,3.79-1.31,5.35
			c-0.87,1.55-2.09,2.76-3.66,3.62c-1.57,0.86-3.37,1.29-5.4,1.29c-3.42,0-6.07-1.2-7.95-3.6c-1.88-2.4-2.82-5.72-2.82-9.95
			c0-4.41,0.84-7.79,2.53-10.14c1.68-2.35,4.31-3.94,7.89-4.78l9.24-2.11l0.47,2.55l-8.69,2c-2.95,0.65-5.12,1.81-6.5,3.47
			c-1.38,1.66-2.14,4.11-2.27,7.34c0.84-1.59,2-2.84,3.49-3.74c1.49-0.9,3.2-1.35,5.13-1.35
			C667.28,226.01,668.98,226.44,670.48,227.29z M668.8,243.03c1.14-0.67,2.02-1.6,2.66-2.8c0.64-1.2,0.96-2.56,0.96-4.07
			c0-1.51-0.31-2.85-0.94-3.99c-0.63-1.15-1.51-2.04-2.64-2.68c-1.14-0.64-2.44-0.96-3.9-0.96c-1.46,0-2.76,0.32-3.9,0.96
			c-1.14,0.64-2.02,1.53-2.66,2.68c-0.64,1.15-0.96,2.48-0.96,3.99c0,1.51,0.32,2.87,0.96,4.07c0.64,1.2,1.53,2.13,2.68,2.8
			c1.15,0.67,2.44,1,3.88,1C666.38,244.03,667.66,243.7,668.8,243.03z"/>
		<path d="M697.45,234.44c1.33,1.15,2,2.77,2,4.86c0,2.22-0.72,3.91-2.15,5.07c-1.44,1.16-3.5,1.74-6.19,1.74h-8.15v-18.13h-6.42
			v-2.47h9.2v7.21h5.91C694.18,232.71,696.12,233.29,697.45,234.44z M695.22,242.78c0.94-0.78,1.41-1.94,1.41-3.49
			c0-2.98-1.85-4.46-5.56-4.46h-5.33v9.13h5.33C692.89,243.95,694.28,243.56,695.22,242.78z"/>
		<path d="M722.75,236.67h-17.23c0.16,2.14,0.98,3.87,2.47,5.19c1.49,1.32,3.37,1.98,5.64,1.98c1.28,0,2.45-0.23,3.53-0.69
			c1.07-0.46,2-1.13,2.78-2.02l1.57,1.8c-0.91,1.1-2.06,1.93-3.43,2.51c-1.37,0.57-2.88,0.86-4.52,0.86c-2.11,0-3.99-0.45-5.62-1.35
			c-1.63-0.9-2.91-2.15-3.82-3.74s-1.37-3.39-1.37-5.4c0-2.01,0.44-3.81,1.31-5.4c0.87-1.59,2.08-2.83,3.6-3.72
			c1.53-0.89,3.24-1.33,5.15-1.33s3.62,0.44,5.13,1.33c1.51,0.89,2.7,2.12,3.56,3.7c0.86,1.58,1.29,3.39,1.29,5.42L722.75,236.67z
			 M707.81,229.64c-1.35,1.27-2.11,2.92-2.29,4.95h14.61c-0.18-2.04-0.95-3.69-2.29-4.95c-1.35-1.27-3.02-1.9-5.03-1.9
			C710.82,227.74,709.15,228.37,707.81,229.64z"/>
		<path d="M736.42,236.94h-4.7v9.16h-2.78v-20.6h2.78v9.05h4.74l7.24-9.05h3.02l-8.11,9.99l8.69,10.61h-3.29L736.42,236.94z"/>
		<path d="M765.75,227.97h-7.79v18.13h-2.78v-18.13h-7.79v-2.47h18.37V227.97z"/>
		<path d="M771.98,244.95c-1.59-0.9-2.85-2.15-3.76-3.74s-1.37-3.39-1.37-5.4c0-2.01,0.46-3.81,1.37-5.4
			c0.91-1.59,2.17-2.83,3.76-3.72c1.59-0.89,3.38-1.33,5.36-1.33s3.77,0.44,5.37,1.33c1.59,0.89,2.84,2.13,3.74,3.72
			c0.9,1.59,1.35,3.39,1.35,5.4c0,2.01-0.45,3.81-1.35,5.4c-0.9,1.59-2.15,2.84-3.74,3.74c-1.59,0.9-3.38,1.35-5.37,1.35
			S773.57,245.85,771.98,244.95z M781.28,242.84c1.16-0.67,2.07-1.61,2.72-2.84c0.65-1.23,0.98-2.62,0.98-4.19
			c0-1.57-0.33-2.96-0.98-4.19c-0.65-1.23-1.56-2.17-2.72-2.84c-1.16-0.67-2.47-1-3.94-1c-1.46,0-2.77,0.33-3.94,1
			c-1.16,0.67-2.08,1.61-2.74,2.84c-0.67,1.23-1,2.62-1,4.19c0,1.57,0.33,2.96,1,4.19c0.67,1.23,1.58,2.17,2.74,2.84
			c1.16,0.67,2.47,1,3.94,1C778.8,243.83,780.12,243.5,781.28,242.84z"/>
		<path d="M811.06,240.51c0,1.8-0.67,3.19-2,4.15c-1.33,0.97-3.32,1.45-5.95,1.45h-9.36v-20.6h9.09c2.35,0,4.19,0.46,5.52,1.37
			c1.33,0.91,2,2.22,2,3.92c0,1.12-0.31,2.08-0.92,2.88c-0.61,0.8-1.47,1.39-2.57,1.78C809.66,236.11,811.06,237.79,811.06,240.51z
			 M796.45,234.67h6.19c1.59,0,2.81-0.3,3.66-0.9c0.85-0.6,1.27-1.47,1.27-2.62c0-1.15-0.42-2.01-1.27-2.58
			c-0.85-0.57-2.07-0.86-3.66-0.86h-6.19V234.67z M806.99,243.05c0.89-0.57,1.33-1.48,1.33-2.7c0-1.23-0.41-2.13-1.21-2.72
			c-0.81-0.59-2.09-0.88-3.84-0.88h-6.81v7.17h6.54C804.77,243.91,806.1,243.63,806.99,243.05z"/>
	</g>
	<path class="st0" d="M202.67,281.24L202.67,281.24c-7.17-13.14-26.97-9.36-28.79,5.5l0,0c-0.83,6.83-10.63,7.14-11.89,0.38l0,0
		c-2.75-14.71-22.76-17.23-29.08-3.67l0,0c-2.9,6.24-12.31,3.51-11.43-3.32l0,0c1.93-14.84-16.32-23.42-26.52-12.47l0,0
		c-4.69,5.03-12.79-0.47-9.84-6.68l0,0c6.42-13.52-8.28-27.32-21.37-20.06l0,0c-6.02,3.34-12.02-4.4-7.29-9.4l0,0
		c10.28-10.88,0.56-28.54-14.13-25.68l0,0c-6.75,1.32-10.07-7.9-4.03-11.19l0,0c13.14-7.17,9.36-26.97-5.5-28.79l0,0
		c-6.83-0.83-7.14-10.63-0.38-11.89l0,0c14.71-2.75,17.23-22.76,3.67-29.08l0,0c-6.24-2.9-3.51-12.31,3.32-11.43l0,0
		c14.84,1.93,23.42-16.32,12.47-26.52l0,0c-5.03-4.69,0.47-12.79,6.68-9.84l0,0c13.52,6.42,27.32-8.28,20.06-21.37l0,0
		c-3.34-6.02,4.4-12.02,9.4-7.29l0,0c10.88,10.28,28.54,0.56,25.68-14.13l0,0c-1.32-6.75,7.9-10.07,11.19-4.03l0,0
		c7.17,13.14,26.97,9.36,28.79-5.5l0,0c0.83-6.83,10.63-7.14,11.89-0.38l0,0c2.75,14.71,22.76,17.23,29.08,3.67l0,0
		c2.9-6.24,12.31-3.51,11.43,3.32v0c-1.93,14.84,16.32,23.42,26.52,12.47l0,0c4.69-5.03,12.79,0.47,9.84,6.68l0,0
		c-6.42,13.52,8.28,27.32,21.37,20.06l0,0c6.02-3.34,12.02,4.4,7.29,9.4l0,0c-10.28,10.88-0.56,28.54,14.13,25.68l0,0
		c6.75-1.32,10.07,7.9,4.03,11.19l0,0c-13.14,7.17-9.36,26.97,5.5,28.79h0c6.83,0.83,7.14,10.63,0.38,11.89l0,0
		c-14.71,2.75-17.23,22.76-3.67,29.08l0,0c6.24,2.9,3.51,12.31-3.32,11.43l0,0c-14.84-1.93-23.42,16.32-12.47,26.52l0,0
		c5.03,4.69-0.47,12.79-6.68,9.84l0,0c-13.52-6.42-27.32,8.28-20.06,21.37l0,0c3.34,6.02-4.4,12.02-9.4,7.29l0,0
		c-10.88-10.28-28.54-0.56-25.68,14.13l0,0C215.18,283.96,205.96,287.28,202.67,281.24z"/>
	<path class="st1" d="M280.01,216.98L280.01,216.98c-14.36-4.23-25.69,12.46-16.47,24.25l0,0c4.24,5.42-2.46,12.56-8.14,8.67l0,0
		c-12.35-8.46-28.28,3.91-23.15,17.97l0,0c2.36,6.46-6.23,11.19-10.42,5.73l0,0c-9.13-11.86-28.1-5.02-27.57,9.94v0
		c0.24,6.88-9.38,8.71-11.69,2.23l0,0c-5.02-14.1-25.18-13.46-29.29,0.93l0,0c-1.89,6.62-11.61,5.39-11.8-1.49v0
		c-0.42-14.96-19.78-20.58-28.15-8.17l0,0c-3.84,5.71-12.71,1.54-10.77-5.06l0,0c4.23-14.36-12.46-25.69-24.25-16.47l0,0
		c-5.42,4.24-12.56-2.46-8.67-8.14l0,0c8.46-12.35-3.91-28.28-17.97-23.15l0,0c-6.46,2.36-11.19-6.23-5.73-10.42l0,0
		c11.86-9.13,5.02-28.1-9.94-27.57h0c-6.88,0.24-8.71-9.38-2.23-11.69l0,0c14.1-5.02,13.46-25.18-0.93-29.29l0,0
		c-6.62-1.89-5.39-11.61,1.49-11.8h0c14.96-0.42,20.58-19.78,8.17-28.15l0,0c-5.71-3.84-1.54-12.71,5.06-10.77l0,0
		c14.36,4.23,25.69-12.46,16.47-24.25l0,0c-4.24-5.42,2.46-12.56,8.14-8.67l0,0c12.35,8.46,28.28-3.91,23.15-17.97l0,0
		c-2.36-6.46,6.23-11.19,10.42-5.73l0,0c9.13,11.86,28.1,5.02,27.57-9.94v0c-0.24-6.88,9.38-8.71,11.69-2.23l0,0
		c5.02,14.1,25.18,13.46,29.29-0.93l0,0c1.89-6.62,11.61-5.39,11.8,1.49v0c0.42,14.96,19.78,20.58,28.15,8.17l0,0
		c3.84-5.71,12.71-1.54,10.77,5.06l0,0c-4.23,14.36,12.46,25.69,24.25,16.47l0,0c5.42-4.24,12.56,2.46,8.67,8.14l0,0
		c-8.46,12.35,3.91,28.28,17.97,23.15l0,0c6.46-2.36,11.19,6.23,5.73,10.42l0,0c-11.86,9.13-5.02,28.1,9.94,27.57h0
		c6.88-0.24,8.71,9.38,2.23,11.69l0,0c-14.1,5.02-13.46,25.18,0.93,29.29l0,0c6.62,1.89,5.39,11.61-1.49,11.8h0
		c-14.96,0.42-20.58,19.78-8.17,28.15l0,0C290.78,210.06,286.61,218.92,280.01,216.98z"/>
	<circle class="st2" cx="163.78" cy="155.75" r="86.18"/>
	<g>
		<path class="st1" d="M160.43,152.07c0,22.37-0.01,44.74,0.02,67.11c0,1.08-0.28,1.4-1.36,1.37c-4.87-0.14-9.76,0.29-14.61-0.2
			c-7.9-0.78-13.23-6.74-13.32-14.67c-0.04-3.92-0.01-7.84-0.01-11.75c0-22.74-0.01-45.47,0.01-68.21c0-5.94,2.69-10.37,7.82-13.3
			c1.84-1.05,3.87-1.57,6-1.62c1.59-0.04,3.19-0.12,4.78-0.01c1.15,0.08,1.35-0.37,1.35-1.38c-0.03-8.16,0.01-16.31-0.06-24.47
			c-0.01-1.31,0.33-1.74,1.65-1.67c2.04,0.11,4.1,0.1,6.15,0.01c1.22-0.06,1.61,0.22,1.61,1.54
			C160.42,107.23,160.43,129.65,160.43,152.07z M151.09,165.58C151.09,165.58,151.08,165.58,151.09,165.58
			c0-14.49,0-28.97-0.01-43.46c0-0.41-0.01-0.82-0.01-1.23c0-0.34-0.07-0.71-0.48-0.69c-2.39,0.09-4.86-0.55-7.14,0.56
			c-2.26,1.11-2.88,3.02-2.87,5.5c0.07,25.33,0.04,50.66,0.04,75.99c0,1.32-0.03,2.64,0.01,3.96c0.08,2.55,2.11,4.66,4.67,4.81
			c1.23,0.07,2.46,0.05,3.69,0.05c2.1,0.01,2.1,0,2.1-2.16C151.09,194.47,151.09,180.02,151.09,165.58z"/>
		<path class="st1" d="M176.6,145.36c2.08-3.14,4.17-6.27,6.22-9.42c1.08-1.65,2.09-3.36,3.16-5.01c0.44-0.68,0.62-1.39,0.62-2.19
			c-0.01-5.24,0-10.48,0-15.72c0-0.18,0.01-0.37-0.01-0.55c-0.2-1.86-0.2-1.86,1.78-1.86c2.23,0,4.47,0,6.7-0.01
			c1.01,0,1.55,0.27,1.28,1.47c-0.19,0.83-0.1,1.72-0.11,2.58c-0.01,5.47-0.07,10.94,0.04,16.41c0.03,1.63-0.46,2.95-1.37,4.16
			c-4.48,5.98-8.31,12.39-12.55,18.52c-0.44,0.63-0.35,1.07,0.07,1.69c4.37,6.59,8.7,13.22,13.06,19.82c0.5,0.76,0.7,1.53,0.7,2.43
			c-0.02,13.76-0.03,27.53,0.01,41.29c0,1.38-0.43,1.67-1.73,1.59c-2.13-0.13-4.28-0.11-6.42-0.02c-1.12,0.05-1.36-0.33-1.36-1.39
			c0.03-12.62,0-25.25,0.03-37.87c0-1.5-0.23-2.79-1.15-4.07c-2.99-4.18-5.57-8.64-8.63-12.78c-0.13-0.17-0.2-0.41-0.51-0.42
			c-0.36,0.31-0.19,0.75-0.19,1.13c-0.01,18.09-0.02,36.18,0.01,54.28c0,0.81-0.11,1.12-1.01,1.1c-2.55-0.03-5.1,0.03-7.65,0.08
			c-0.76,0.02-0.79-0.45-0.78-0.98c0.02-1.23,0.07-2.46,0.07-3.69c0.01-43.57,0.01-87.13,0.01-130.7c0-0.41-0.04-0.82-0.04-1.23
			c0-0.55,0.2-0.77,0.83-0.75c2.41,0.06,4.83,0.09,7.24,0.01c1.13-0.04,1.34,0.38,1.34,1.42c-0.03,19.6-0.02,39.19-0.02,58.79
			c0,0.58,0,1.16,0,1.74C176.35,145.27,176.48,145.31,176.6,145.36z"/>
	</g>
</g>
</svg>
