<?xml version="1.0" encoding="utf-8"?>
<!-- Generator: Adobe Illustrator 27.8.1, SVG Export Plug-In . SVG Version: 6.00 Build 0)  -->
<svg version="1.1" id="Слой_1" xmlns="http://www.w3.org/2000/svg" xmlns:xlink="http://www.w3.org/1999/xlink" x="0px" y="0px"
	 viewBox="0 0 841.89 337.87" style="enable-background:new 0 0 841.89 337.87;" xml:space="preserve">
<style type="text/css">
	.st0{fill:#FFFFFF;}
	.st1{fill:#1D1D1B;}
</style>
<g>
	<path d="M419.08,111.35c6.89,3.1,12.2,7.53,15.94,13.29c3.74,5.76,5.61,12.53,5.61,20.3c0,7.78-1.87,14.52-5.61,20.23
		c-3.74,5.71-9.06,10.11-15.94,13.21c-6.89,3.1-15.01,4.65-24.36,4.65h-18.01v27.02h-29.23V106.7h47.24
		C404.07,106.7,412.19,108.25,419.08,111.35z M406.53,156.08c3.05-2.61,4.58-6.32,4.58-11.15c0-4.82-1.53-8.56-4.58-11.22
		c-3.05-2.66-7.58-3.99-13.58-3.99h-16.24V160h16.24C398.95,160,403.48,158.69,406.53,156.08z"/>
	<path d="M499.98,182.58h-15.94v27.46h-29.23V106.7h47.24c9.35,0,17.47,1.55,24.36,4.65c6.89,3.1,12.2,7.53,15.94,13.29
		c3.74,5.76,5.61,12.53,5.61,20.3c0,7.48-1.75,14-5.24,19.56c-3.5,5.56-8.49,9.92-14.99,13.07l22.29,32.48h-31.3L499.98,182.58z
		 M513.86,133.72c-3.05-2.66-7.58-3.99-13.58-3.99h-16.24V160h16.24c6,0,10.53-1.3,13.58-3.91c3.05-2.61,4.58-6.32,4.58-11.15
		C518.44,140.12,516.91,136.38,513.86,133.72z"/>
	<path d="M586.72,205.17c-8.71-4.63-15.55-11.02-20.52-19.19c-4.97-8.17-7.46-17.37-7.46-27.61c0-10.23,2.48-19.44,7.46-27.61
		c4.97-8.17,11.81-14.57,20.52-19.19c8.71-4.63,18.53-6.94,29.45-6.94s20.74,2.31,29.45,6.94c8.71,4.63,15.55,11.02,20.52,19.19
		c4.97,8.17,7.45,17.37,7.45,27.61c0,10.24-2.49,19.44-7.45,27.61c-4.97,8.17-11.81,14.57-20.52,19.19
		c-8.71,4.63-18.53,6.94-29.45,6.94S595.43,209.8,586.72,205.17z M630.34,184.21c4.23-2.46,7.58-5.93,10.04-10.41
		c2.46-4.48,3.69-9.62,3.69-15.43c0-5.81-1.23-10.95-3.69-15.43c-2.46-4.48-5.81-7.95-10.04-10.41c-4.23-2.46-8.96-3.69-14.17-3.69
		c-5.22,0-9.94,1.23-14.17,3.69c-4.23,2.46-7.58,5.93-10.04,10.41c-2.46,4.48-3.69,9.62-3.69,15.43c0,5.81,1.23,10.95,3.69,15.43
		c2.46,4.48,5.81,7.95,10.04,10.41c4.23,2.46,8.95,3.69,14.17,3.69C621.38,187.9,626.11,186.67,630.34,184.21z"/>
	<path d="M718.18,129.29v22.74h45.62v22.59h-45.62v35.43h-29.23V106.7H770v22.59H718.18z"/>
	<path d="M783.73,106.7h29.23v103.34h-29.23V106.7z"/>
</g>
<g>
	<path d="M365.3,236.17H350.7l0.04,24.91h-2.86v-27.41h17.43V236.17z"/>
	<path d="M382.89,242.34c1.44,1.35,2.15,3.34,2.15,5.97v12.77h-2.66v-3.21c-0.63,1.07-1.55,1.91-2.76,2.51
		c-1.21,0.6-2.66,0.9-4.33,0.9c-2.3,0-4.13-0.55-5.48-1.64c-1.36-1.1-2.04-2.55-2.04-4.35c0-1.75,0.63-3.16,1.9-4.23
		c1.27-1.07,3.28-1.61,6.05-1.61h6.54v-1.25c0-1.78-0.5-3.13-1.49-4.05c-0.99-0.93-2.44-1.39-4.35-1.39c-1.31,0-2.56,0.22-3.76,0.65
		c-1.2,0.43-2.23,1.02-3.09,1.78l-1.25-2.08c1.04-0.89,2.3-1.57,3.76-2.06c1.46-0.48,3-0.72,4.62-0.72
		C379.39,240.32,381.45,240.99,382.89,242.34z M379.75,258c1.12-0.72,1.96-1.76,2.51-3.11v-3.37h-6.46c-3.52,0-5.29,1.23-5.29,3.68
		c0,1.2,0.46,2.15,1.37,2.84c0.91,0.69,2.19,1.04,3.84,1.04C377.29,259.08,378.63,258.72,379.75,258z"/>
	<path d="M405.43,252.11c0.8,0.84,1.19,1.85,1.19,3.05c0,1.2-0.41,2.27-1.23,3.21c-0.82,0.94-1.94,1.66-3.35,2.17
		s-2.96,0.76-4.66,0.76c-1.49,0-2.95-0.22-4.39-0.65c-1.44-0.43-2.69-1.06-3.76-1.9l0.94-2.08c0.94,0.7,2.04,1.25,3.29,1.64
		c1.25,0.39,2.52,0.59,3.8,0.59c1.91,0,3.47-0.36,4.68-1.08c1.21-0.72,1.82-1.69,1.82-2.92c0-1.1-0.5-1.95-1.49-2.57
		c-0.99-0.61-2.35-0.92-4.07-0.92h-3.52v-2.04h3.37c1.54,0,2.78-0.29,3.72-0.88c0.94-0.59,1.41-1.38,1.41-2.37
		c0-1.1-0.53-1.96-1.59-2.59c-1.06-0.63-2.43-0.94-4.13-0.94c-2.22,0-4.41,0.56-6.58,1.68l-0.78-2.15c2.45-1.28,5-1.92,7.64-1.92
		c1.57,0,2.98,0.23,4.25,0.68c1.27,0.46,2.26,1.1,2.98,1.94c0.72,0.84,1.08,1.8,1.08,2.9c0,1.04-0.36,1.97-1.08,2.78
		c-0.72,0.81-1.69,1.41-2.92,1.8C403.5,250.69,404.63,251.27,405.43,252.11z"/>
	<path d="M412.93,240.48h2.78v16.37l13.75-16.37h2.47v20.6h-2.78v-16.37l-13.71,16.37h-2.51V240.48z"/>
	<path d="M461.57,258.3c-2.11,1.83-5.1,2.82-8.97,2.98v7.4h-2.7v-7.36c-3.84-0.16-6.81-1.16-8.91-3c-2.1-1.84-3.15-4.37-3.15-7.58
		c0-3.18,1.05-5.68,3.15-7.48c2.1-1.8,5.07-2.78,8.91-2.94v-8.3h2.7v8.3c3.86,0.18,6.85,1.18,8.97,2.98
		c2.12,1.8,3.17,4.28,3.17,7.44C464.74,253.95,463.68,256.47,461.57,258.3z M442.95,256.5c1.58,1.38,3.9,2.17,6.95,2.35v-16.06
		c-3.03,0.16-5.34,0.92-6.93,2.29c-1.59,1.37-2.39,3.26-2.39,5.66C440.58,253.19,441.37,255.11,442.95,256.5z M459.59,256.54
		c1.61-1.38,2.41-3.32,2.41-5.8c0-2.43-0.8-4.32-2.41-5.68c-1.61-1.36-3.94-2.11-6.99-2.27v16.06
		C455.65,258.69,457.98,257.92,459.59,256.54z"/>
	<path d="M470.62,240.48h2.78v16.37l13.75-16.37h2.47v20.6h-2.78v-16.37l-13.71,16.37h-2.51V240.48z"/>
	<path d="M505.04,251.91h-4.7v9.16h-2.78v-20.6h2.78v9.05h4.74l7.24-9.05h3.02l-8.11,9.99l8.69,10.61h-3.29L505.04,251.91z"/>
	<path d="M533.2,242.34c1.44,1.35,2.15,3.34,2.15,5.97v12.77h-2.66v-3.21c-0.63,1.07-1.55,1.91-2.76,2.51
		c-1.21,0.6-2.66,0.9-4.33,0.9c-2.3,0-4.13-0.55-5.48-1.64s-2.04-2.55-2.04-4.35c0-1.75,0.63-3.16,1.9-4.23
		c1.27-1.07,3.28-1.61,6.05-1.61h6.54v-1.25c0-1.78-0.5-3.13-1.49-4.05c-0.99-0.93-2.44-1.39-4.35-1.39c-1.31,0-2.56,0.22-3.76,0.65
		c-1.2,0.43-2.23,1.02-3.09,1.78l-1.25-2.08c1.04-0.89,2.3-1.57,3.76-2.06c1.46-0.48,3-0.72,4.62-0.72
		C529.7,240.32,531.76,240.99,533.2,242.34z M530.06,258c1.12-0.72,1.96-1.76,2.51-3.11v-3.37h-6.46c-3.52,0-5.29,1.23-5.29,3.68
		c0,1.2,0.46,2.15,1.37,2.84c0.91,0.69,2.19,1.04,3.84,1.04C527.6,259.08,528.94,258.72,530.06,258z"/>
	<path d="M564.22,258.65v7.6h-2.62v-5.17h-18.84v-20.6h2.78v18.17h12.57v-18.17h2.78v18.17H564.22z"/>
	<path d="M569.54,240.48h2.78v16.37l13.75-16.37h2.47v20.6h-2.78v-16.37l-13.71,16.37h-2.51V240.48z"/>
	<path d="M612.31,240.48v20.6h-2.55v-6.81h-6.46h-0.78l-4.78,6.81h-3.02l5.13-7.21c-1.59-0.44-2.82-1.2-3.68-2.27
		c-0.86-1.07-1.29-2.43-1.29-4.07c0-2.3,0.78-4.05,2.35-5.25c1.57-1.2,3.71-1.8,6.42-1.8H612.31z M603.53,252.19h6.23v-9.24h-6.03
		c-4.02,0-6.03,1.55-6.03,4.66C597.7,250.66,599.64,252.19,603.53,252.19z"/>
	<path d="M633.61,259.92c-1.59-0.9-2.85-2.15-3.76-3.74c-0.91-1.59-1.37-3.39-1.37-5.4c0-2.01,0.46-3.81,1.37-5.4
		c0.91-1.59,2.17-2.83,3.76-3.72c1.59-0.89,3.38-1.33,5.36-1.33c1.98,0,3.77,0.44,5.37,1.33c1.59,0.89,2.84,2.13,3.74,3.72
		c0.9,1.59,1.35,3.39,1.35,5.4c0,2.01-0.45,3.81-1.35,5.4c-0.9,1.59-2.15,2.84-3.74,3.74c-1.59,0.9-3.38,1.35-5.37,1.35
		C636.99,261.27,635.2,260.82,633.61,259.92z M642.91,257.81c1.16-0.67,2.07-1.61,2.72-2.84c0.65-1.23,0.98-2.62,0.98-4.19
		c0-1.57-0.33-2.96-0.98-4.19c-0.65-1.23-1.56-2.17-2.72-2.84c-1.16-0.67-2.47-1-3.94-1c-1.46,0-2.77,0.33-3.94,1
		c-1.16,0.67-2.08,1.61-2.74,2.84c-0.67,1.23-1,2.62-1,4.19c0,1.57,0.33,2.96,1,4.19c0.67,1.23,1.58,2.17,2.74,2.84
		c1.16,0.67,2.47,1,3.94,1C640.44,258.81,641.75,258.47,642.91,257.81z"/>
	<path d="M670.48,242.26c1.5,0.85,2.67,2.04,3.5,3.56s1.25,3.27,1.25,5.23c0,2.01-0.44,3.79-1.31,5.35
		c-0.87,1.55-2.09,2.76-3.66,3.62c-1.57,0.86-3.37,1.29-5.4,1.29c-3.42,0-6.07-1.2-7.95-3.6c-1.88-2.4-2.82-5.72-2.82-9.95
		c0-4.41,0.84-7.79,2.53-10.14c1.68-2.35,4.31-3.94,7.89-4.78l9.24-2.11l0.47,2.55l-8.69,2c-2.95,0.65-5.12,1.81-6.5,3.47
		c-1.38,1.66-2.14,4.11-2.27,7.34c0.84-1.59,2-2.84,3.49-3.74c1.49-0.9,3.2-1.35,5.13-1.35
		C667.28,240.99,668.98,241.41,670.48,242.26z M668.8,258c1.14-0.67,2.02-1.6,2.66-2.8c0.64-1.2,0.96-2.56,0.96-4.07
		c0-1.51-0.31-2.85-0.94-3.99c-0.63-1.15-1.51-2.04-2.64-2.68c-1.14-0.64-2.44-0.96-3.9-0.96c-1.46,0-2.76,0.32-3.9,0.96
		c-1.14,0.64-2.02,1.53-2.66,2.68c-0.64,1.15-0.96,2.48-0.96,3.99c0,1.51,0.32,2.87,0.96,4.07c0.64,1.2,1.53,2.13,2.68,2.8
		c1.15,0.67,2.44,1,3.88,1C666.38,259,667.66,258.67,668.8,258z"/>
	<path d="M697.45,249.41c1.33,1.15,2,2.77,2,4.86c0,2.22-0.72,3.91-2.15,5.07c-1.44,1.16-3.5,1.74-6.19,1.74h-8.15v-18.13h-6.42
		v-2.47h9.2v7.21h5.91C694.18,247.68,696.12,248.26,697.45,249.41z M695.22,257.75c0.94-0.78,1.41-1.94,1.41-3.49
		c0-2.98-1.85-4.46-5.56-4.46h-5.33v9.13h5.33C692.89,258.92,694.28,258.53,695.22,257.75z"/>
	<path d="M722.75,251.64h-17.23c0.16,2.14,0.98,3.87,2.47,5.19c1.49,1.32,3.37,1.98,5.64,1.98c1.28,0,2.45-0.23,3.53-0.69
		c1.07-0.46,2-1.13,2.78-2.02l1.57,1.8c-0.91,1.1-2.06,1.93-3.43,2.51c-1.37,0.57-2.88,0.86-4.52,0.86c-2.11,0-3.99-0.45-5.62-1.35
		c-1.63-0.9-2.91-2.15-3.82-3.74c-0.91-1.59-1.37-3.39-1.37-5.4c0-2.01,0.44-3.81,1.31-5.4c0.87-1.59,2.08-2.83,3.6-3.72
		c1.53-0.89,3.24-1.33,5.15-1.33s3.62,0.44,5.13,1.33c1.51,0.89,2.7,2.12,3.56,3.7c0.86,1.58,1.29,3.39,1.29,5.42L722.75,251.64z
		 M707.81,244.61c-1.35,1.27-2.11,2.92-2.29,4.95h14.61c-0.18-2.04-0.95-3.69-2.29-4.95c-1.35-1.27-3.02-1.9-5.03-1.9
		C710.82,242.71,709.15,243.34,707.81,244.61z"/>
	<path d="M736.42,251.91h-4.7v9.16h-2.78v-20.6h2.78v9.05h4.74l7.24-9.05h3.02l-8.11,9.99l8.69,10.61h-3.29L736.42,251.91z"/>
	<path d="M765.75,242.95h-7.79v18.13h-2.78v-18.13h-7.79v-2.47h18.37V242.95z"/>
	<path d="M771.98,259.92c-1.59-0.9-2.85-2.15-3.76-3.74c-0.91-1.59-1.37-3.39-1.37-5.4c0-2.01,0.46-3.81,1.37-5.4
		c0.91-1.59,2.17-2.83,3.76-3.72c1.59-0.89,3.38-1.33,5.36-1.33s3.77,0.44,5.37,1.33c1.59,0.89,2.84,2.13,3.74,3.72
		c0.9,1.59,1.35,3.39,1.35,5.4c0,2.01-0.45,3.81-1.35,5.4c-0.9,1.59-2.15,2.84-3.74,3.74c-1.59,0.9-3.38,1.35-5.37,1.35
		S773.57,260.82,771.98,259.92z M781.28,257.81c1.16-0.67,2.07-1.61,2.72-2.84c0.65-1.23,0.98-2.62,0.98-4.19
		c0-1.57-0.33-2.96-0.98-4.19c-0.65-1.23-1.56-2.17-2.72-2.84c-1.16-0.67-2.47-1-3.94-1c-1.46,0-2.77,0.33-3.94,1
		c-1.16,0.67-2.08,1.61-2.74,2.84c-0.67,1.23-1,2.62-1,4.19c0,1.57,0.33,2.96,1,4.19c0.67,1.23,1.58,2.17,2.74,2.84
		c1.16,0.67,2.47,1,3.94,1C778.8,258.81,780.12,258.47,781.28,257.81z"/>
	<path d="M811.06,255.48c0,1.8-0.67,3.19-2,4.15c-1.33,0.97-3.32,1.45-5.95,1.45h-9.36v-20.6h9.09c2.35,0,4.19,0.46,5.52,1.37
		c1.33,0.91,2,2.22,2,3.92c0,1.12-0.31,2.08-0.92,2.88c-0.61,0.8-1.47,1.39-2.57,1.78C809.66,251.08,811.06,252.76,811.06,255.48z
		 M796.45,249.64h6.19c1.59,0,2.81-0.3,3.66-0.9c0.85-0.6,1.27-1.47,1.27-2.62c0-1.15-0.42-2.01-1.27-2.58
		c-0.85-0.57-2.07-0.86-3.66-0.86h-6.19V249.64z M806.99,258.02c0.89-0.57,1.33-1.48,1.33-2.7c0-1.23-0.41-2.13-1.21-2.72
		c-0.81-0.59-2.09-0.88-3.84-0.88h-6.81v7.17h6.54C804.77,258.89,806.1,258.6,806.99,258.02z"/>
</g>
<g>
	<path class="st0" d="M291.79,160.62c-2.69-0.33-5.01-1.25-6.94-2.57c-0.42-0.29-0.82-0.6-1.2-0.92c-0.38-0.33-0.75-0.67-1.1-1.03
		c-2.8-2.92-4.3-6.89-4.3-10.87c0-1.97,0.37-3.95,1.12-5.8c0.19-0.46,0.4-0.92,0.65-1.36c0.23-0.45,0.49-0.88,0.77-1.3
		c1.3-1.94,3.13-3.65,5.5-4.94c5.64-3.07,3.12-11.32-2.74-11.32c-0.41,0-0.84,0.04-1.29,0.13c-2.66,0.52-5.15,0.36-7.39-0.31
		c-0.49-0.13-0.97-0.3-1.43-0.5c-0.46-0.18-0.91-0.4-1.35-0.64c-5.02-2.69-8.22-8.13-8.22-13.79c0-0.36,0.01-0.71,0.04-1.07
		c0.03-0.5,0.09-0.99,0.19-1.49c0.08-0.5,0.19-0.99,0.33-1.48c0.64-2.25,1.84-4.44,3.7-6.4c3.93-4.16,0.44-10.21-4.3-10.21
		c-0.97,0-1.98,0.25-2.99,0.81c-2.37,1.32-4.78,1.93-7.12,1.99c-0.52,0.02-1.03,0.01-1.53-0.04c-0.5-0.03-0.99-0.1-1.48-0.19
		c-5.96-1.07-10.92-5.73-12.37-11.61c-0.12-0.48-0.21-0.96-0.28-1.46c-0.08-0.5-0.12-1-0.14-1.52c-0.01-0.18-0.01-0.36-0.01-0.54
		c0-2.17,0.48-4.43,1.55-6.69c2.15-4.51-1.54-8.65-5.51-8.65c-1.5,0-3.05,0.59-4.33,1.97c-1.84,1.98-3.95,3.32-6.15,4.1
		c-0.48,0.17-0.96,0.32-1.45,0.43c-0.49,0.12-0.99,0.22-1.48,0.28c-6,0.82-12.17-2.08-15.35-7.23c-0.27-0.42-0.51-0.86-0.73-1.31
		c-0.22-0.45-0.42-0.92-0.59-1.4c-0.59-1.59-0.91-3.33-0.91-5.19c0-0.7,0.04-1.42,0.14-2.16c0.54-4.17-2.76-6.81-6.07-6.81
		c-2.11,0-4.23,1.07-5.36,3.5c-1.14,2.45-2.73,4.38-4.59,5.79c-0.4,0.32-0.81,0.61-1.24,0.87c-0.43,0.27-0.87,0.51-1.32,0.71
		c-2.11,1.03-4.42,1.53-6.72,1.53c-3.64,0-7.28-1.25-10.12-3.64c-0.38-0.33-0.75-0.67-1.09-1.03c-0.35-0.36-0.68-0.74-1-1.14
		c-1.44-1.84-2.5-4.1-3-6.76c-0.61-3.29-3.25-4.91-5.9-4.91c-2.78,0-5.56,1.79-5.99,5.29c-0.33,2.69-1.24,5.01-2.56,6.94
		c-0.29,0.42-0.6,0.83-0.93,1.21c-0.32,0.38-0.66,0.74-1.02,1.09c-2.92,2.8-6.89,4.3-10.88,4.3c-1.96,0-3.93-0.37-5.79-1.12
		c-0.46-0.19-0.92-0.4-1.36-0.64c-0.44-0.23-0.88-0.49-1.3-0.78c-1.94-1.3-3.65-3.12-4.95-5.5c-3.07-5.64-11.32-3.12-11.32,2.74
		c0,0.41,0.04,0.84,0.13,1.29c0.52,2.66,0.36,5.15-0.31,7.39c-0.13,0.49-0.3,0.97-0.5,1.43c-0.18,0.46-0.4,0.91-0.64,1.35
		c-2.68,5.02-8.12,8.22-13.79,8.22c-0.36,0-0.71-0.01-1.07-0.04c-0.49-0.03-0.99-0.09-1.48-0.18c-0.5-0.09-0.99-0.2-1.48-0.34
		c-2.25-0.64-4.44-1.84-6.41-3.7c-4.16-3.93-10.21-0.44-10.21,4.3c0,0.97,0.25,1.98,0.81,2.99c1.32,2.37,1.94,4.78,2,7.12
		c0.02,0.51,0,1.02-0.04,1.53c-0.03,0.5-0.1,0.99-0.19,1.48c-1.07,5.96-5.73,10.92-11.62,12.37c-0.47,0.12-0.96,0.21-1.46,0.28
		c-0.5,0.08-1,0.12-1.52,0.14c-0.18,0.01-0.36,0.01-0.54,0.01c-2.17,0-4.43-0.48-6.69-1.55c-4.51-2.15-8.65,1.54-8.65,5.51
		c0,1.5,0.59,3.05,1.97,4.33c1.98,1.84,3.32,3.95,4.1,6.15c0.17,0.48,0.32,0.96,0.43,1.45c0.12,0.49,0.22,0.99,0.28,1.48
		c0.82,6-2.08,12.16-7.22,15.35c-0.42,0.27-0.86,0.51-1.31,0.73c-0.45,0.22-0.92,0.42-1.41,0.59c-1.59,0.59-3.32,0.91-5.18,0.91
		c-0.71,0-1.42-0.04-2.16-0.14c-4.17-0.54-6.82,2.76-6.82,6.07c0,2.11,1.07,4.23,3.5,5.36c2.45,1.14,4.38,2.73,5.79,4.59
		c0.32,0.4,0.61,0.81,0.87,1.24c0.27,0.43,0.51,0.87,0.71,1.32c1.03,2.11,1.53,4.42,1.53,6.72c0,3.65-1.25,7.29-3.64,10.12
		c-0.32,0.38-0.66,0.74-1.02,1.09c-0.36,0.35-0.75,0.69-1.15,1c-1.84,1.44-4.1,2.5-6.75,3c-3.3,0.61-4.92,3.26-4.92,5.9
		c0,2.78,1.79,5.56,5.29,5.99c2.69,0.33,5.01,1.24,6.94,2.56c0.42,0.29,0.83,0.6,1.21,0.93c0.38,0.33,0.75,0.67,1.09,1.03
		c2.8,2.92,4.3,6.89,4.3,10.87c0,1.96-0.37,3.93-1.12,5.79c-0.19,0.46-0.4,0.91-0.64,1.35c-0.23,0.45-0.49,0.89-0.78,1.32
		c-1.3,1.94-3.13,3.65-5.5,4.94c-5.64,3.07-3.12,11.32,2.75,11.32c0.41,0,0.84-0.04,1.29-0.13c2.66-0.52,5.15-0.36,7.39,0.31
		c0.49,0.13,0.97,0.3,1.43,0.5c0.47,0.19,0.92,0.4,1.35,0.64c5.02,2.69,8.22,8.12,8.22,13.78c0,0.36-0.01,0.72-0.04,1.08
		c-0.03,0.49-0.1,0.99-0.19,1.48c-0.08,0.5-0.19,0.99-0.33,1.48c-0.64,2.25-1.85,4.44-3.71,6.41c-3.93,4.16-0.44,10.21,4.31,10.21
		c0.96,0,1.98-0.25,2.99-0.81c2.37-1.32,4.78-1.94,7.11-2c0.52-0.02,1.03,0,1.53,0.04c0.5,0.03,0.99,0.1,1.48,0.19
		c5.96,1.07,10.93,5.74,12.37,11.62c0.12,0.48,0.22,0.96,0.28,1.46c0.08,0.5,0.12,1.01,0.14,1.52c0.01,0.18,0.01,0.35,0.01,0.53
		c0,2.18-0.48,4.44-1.55,6.7c-2.14,4.51,1.54,8.65,5.52,8.65c1.5,0,3.04-0.59,4.32-1.97c1.84-1.98,3.95-3.32,6.15-4.1
		c0.48-0.17,0.97-0.32,1.46-0.43c0.49-0.12,0.98-0.22,1.47-0.28c6-0.82,12.17,2.08,15.35,7.23c0.27,0.42,0.51,0.86,0.73,1.31
		c0.22,0.45,0.42,0.92,0.59,1.4c0.59,1.59,0.91,3.32,0.91,5.18c0,0.71-0.04,1.42-0.14,2.16c-0.54,4.17,2.76,6.82,6.08,6.82
		c2.11,0,4.22-1.07,5.35-3.5c1.14-2.45,2.73-4.38,4.59-5.79c0.4-0.32,0.81-0.61,1.24-0.87c0.43-0.27,0.87-0.51,1.32-0.71
		c2.11-1.03,4.42-1.53,6.72-1.53c3.64,0,7.28,1.24,10.12,3.63c0.38,0.33,0.75,0.67,1.09,1.03c0.36,0.36,0.69,0.75,1,1.15
		c1.45,1.84,2.5,4.1,3,6.75c0.61,3.3,3.26,4.92,5.9,4.92c2.78,0,5.56-1.79,5.99-5.29c0.33-2.69,1.25-5.01,2.57-6.94
		c0.29-0.42,0.6-0.82,0.92-1.2c0.33-0.39,0.67-0.75,1.04-1.1c4.37-4.18,11.05-5.46,16.66-3.18c0.46,0.19,0.91,0.4,1.35,0.64
		c0.45,0.23,0.89,0.49,1.31,0.78c1.94,1.3,3.65,3.13,4.94,5.5c3.07,5.64,11.32,3.12,11.32-2.75c0-0.41-0.04-0.84-0.13-1.29
		c-0.52-2.65-0.36-5.14,0.3-7.38c0.14-0.49,0.31-0.97,0.51-1.44c0.19-0.47,0.4-0.92,0.64-1.35c2.69-5.02,8.13-8.22,13.79-8.22
		c0.36,0,0.71,0.01,1.07,0.04c0.5,0.03,0.99,0.09,1.49,0.19c0.5,0.08,0.99,0.19,1.48,0.34c2.25,0.63,4.44,1.84,6.4,3.7
		c4.16,3.93,10.21,0.44,10.21-4.31c0-0.96-0.25-1.98-0.81-2.99c-1.32-2.37-1.93-4.78-1.99-7.11c-0.02-0.51-0.01-1.02,0.04-1.53
		c0.03-0.5,0.1-0.99,0.19-1.48c1.07-5.96,5.73-10.92,11.61-12.37c0.48-0.12,0.96-0.21,1.46-0.28c0.5-0.08,1-0.12,1.52-0.14
		c0.18-0.01,0.36-0.01,0.54-0.01c2.17,0,4.43,0.48,6.69,1.55c4.51,2.14,8.65-1.54,8.65-5.52c0-1.5-0.59-3.04-1.97-4.32
		c-1.98-1.84-3.32-3.95-4.1-6.15c-0.17-0.48-0.32-0.97-0.43-1.46c-0.12-0.49-0.22-0.98-0.28-1.47c-0.82-6,2.08-12.17,7.23-15.35
		c0.42-0.27,0.86-0.51,1.31-0.73c0.45-0.22,0.92-0.42,1.4-0.59c1.59-0.59,3.33-0.91,5.19-0.91c0.7,0,1.42,0.04,2.16,0.14
		c4.17,0.54,6.81-2.76,6.81-6.08c0-2.1-1.07-4.22-3.5-5.35c-2.45-1.14-4.38-2.73-5.79-4.59c-0.32-0.4-0.61-0.81-0.87-1.24
		c-0.27-0.43-0.51-0.87-0.71-1.32c-1.03-2.11-1.53-4.42-1.53-6.72c0-3.65,1.25-7.29,3.64-10.13c0.33-0.38,0.67-0.74,1.03-1.08
		c0.36-0.36,0.74-0.69,1.14-1c1.84-1.44,4.1-2.5,6.76-3c3.29-0.61,4.91-3.25,4.91-5.9C297.08,163.83,295.29,161.05,291.79,160.62z
		 M160.81,256.9c-47.6,0-86.18-38.58-86.18-86.18c0-47.59,38.58-86.18,86.18-86.18c47.59,0,86.18,38.59,86.18,86.18
		C246.99,218.32,208.4,256.9,160.81,256.9z"/>
	<g>
		<path class="st0" d="M291.76,181.23c-3.17-0.9-5.67-2.59-7.49-4.72c-2.44-2.83-3.67-6.46-3.67-10.09c0-3.29,1.01-6.58,3.05-9.29
			c1.68-2.24,4.07-4.08,7.18-5.19c6.4-2.28,4.68-11.69-1.98-11.69h-0.25c-3.29,0.12-6.19-0.71-8.58-2.18
			c-4.65-2.83-7.39-8.05-7.39-13.36c0-1.64,0.26-3.29,0.81-4.88c0.91-2.65,2.61-5.14,5.22-7.15c4.81-3.71,1.7-10.82-3.54-10.82
			c-0.7,0-1.43,0.12-2.19,0.4c-3.1,1.13-6.11,1.23-8.83,0.58c-6.86-1.63-11.91-8.04-11.91-15.07v-0.26c0.05-2.8,0.91-5.69,2.77-8.41
			c3.03-4.43-0.65-9.48-4.98-9.48c-1.23,0-2.51,0.41-3.7,1.34c-2.59,2.03-5.42,3.07-8.22,3.29c-7.1,0.57-13.96-4.09-16.04-10.9
			c-0.42-1.36-0.65-2.81-0.65-4.32c0-1.46,0.21-2.98,0.67-4.54c1.3-4.42-2.25-7.75-5.89-7.75c-1.8,0-3.61,0.81-4.88,2.69
			c-1.84,2.73-4.22,4.59-6.81,5.66c-1.86,0.78-3.83,1.15-5.8,1.15c-4.97,0-9.89-2.37-12.82-6.55c-1.61-2.29-2.63-5.13-2.72-8.43
			c-0.1-3.78-3.09-5.85-6.07-5.85c-2.44,0-4.88,1.38-5.73,4.36c-0.91,3.17-2.6,5.67-4.73,7.49c-2.84,2.44-6.46,3.67-10.09,3.67
			c-3.29,0-6.58-1.01-9.29-3.04c-2.24-1.69-4.08-4.08-5.19-7.19c-2.28-6.4-11.68-4.69-11.68,1.97v0.26c0.12,3.3-0.71,6.2-2.18,8.59
			c-2.84,4.64-8.06,7.38-13.37,7.38c-1.64,0-3.29-0.26-4.88-0.81c-2.65-0.91-5.14-2.61-7.15-5.22c-3.71-4.81-10.82-1.7-10.82,3.54
			c0,0.7,0.12,1.43,0.4,2.19c1.13,3.1,1.24,6.11,0.59,8.84c-1.63,6.86-8.05,11.9-15.08,11.9H77.6c-2.8-0.05-5.7-0.91-8.42-2.77
			c-4.42-3.03-9.48,0.65-9.48,4.99c0,1.22,0.41,2.5,1.34,3.69c2.03,2.59,3.07,5.42,3.29,8.22c0.57,7.1-4.09,13.96-10.9,16.04
			c-1.36,0.42-2.81,0.65-4.32,0.65c-1.46,0-2.98-0.21-4.54-0.67c-4.42-1.3-7.75,2.25-7.75,5.89c0,1.8,0.81,3.61,2.69,4.88
			c2.73,1.84,4.6,4.22,5.67,6.81c0.78,1.86,1.15,3.83,1.15,5.8c0,4.97-2.37,9.89-6.56,12.82c-2.29,1.62-5.14,2.63-8.43,2.72
			c-3.78,0.1-5.85,3.09-5.85,6.07c0,2.44,1.38,4.88,4.36,5.73c3.17,0.91,5.67,2.6,7.5,4.73c2.43,2.84,3.66,6.46,3.66,10.09
			c0,3.29-1.01,6.58-3.04,9.29c-1.69,2.24-4.08,4.08-7.19,5.19c-6.4,2.28-4.69,11.68,1.98,11.68h0.26c3.29-0.12,6.19,0.71,8.58,2.17
			c4.65,2.84,7.39,8.06,7.39,13.37c0,1.64-0.26,3.29-0.81,4.89c-0.91,2.65-2.62,5.14-5.23,7.15c-4.81,3.71-1.7,10.82,3.54,10.82
			c0.7,0,1.44-0.12,2.2-0.4c3.09-1.13,6.11-1.24,8.83-0.59c6.86,1.63,11.9,8.05,11.9,15.09v0.24c-0.05,2.81-0.9,5.7-2.76,8.42
			c-3.03,4.42,0.64,9.48,4.98,9.48c1.22,0,2.5-0.41,3.69-1.34c2.59-2.03,5.42-3.07,8.22-3.29c7.1-0.57,13.96,4.08,16.05,10.9
			c0.42,1.36,0.65,2.82,0.65,4.33c0,1.46-0.21,2.98-0.67,4.53c-1.31,4.42,2.24,7.75,5.88,7.75c1.8,0,3.61-0.81,4.88-2.69
			c1.84-2.73,4.22-4.59,6.81-5.66c1.86-0.79,3.84-1.16,5.8-1.16c4.98,0,9.9,2.37,12.82,6.56c1.62,2.29,2.63,5.14,2.72,8.43
			c0.1,3.78,3.09,5.85,6.07,5.85c2.44,0,4.88-1.38,5.73-4.36c0.91-3.17,2.6-5.67,4.73-7.5c2.84-2.43,6.46-3.66,10.09-3.66
			c3.29,0,6.58,1.01,9.29,3.05c2.24,1.68,4.08,4.07,5.19,7.18c2.28,6.4,11.69,4.68,11.69-1.99v-0.25c-0.12-3.29,0.71-6.19,2.17-8.58
			c2.84-4.65,8.06-7.39,13.37-7.39c1.64,0,3.29,0.26,4.88,0.81c2.65,0.91,5.14,2.62,7.15,5.23c3.71,4.81,10.82,1.7,10.82-3.54
			c0-0.7-0.12-1.44-0.4-2.2c-1.13-3.09-1.23-6.1-0.58-8.83c1.63-6.86,8.05-11.9,15.08-11.9h0.25c2.8,0.05,5.69,0.91,8.41,2.76
			c4.43,3.03,9.48-0.64,9.48-4.97c0-1.23-0.41-2.51-1.34-3.7c-2.03-2.59-3.07-5.42-3.29-8.22c-0.57-7.1,4.08-13.96,10.9-16.05
			c2.68-0.82,5.7-0.91,8.86,0.02c4.42,1.31,7.75-2.24,7.75-5.88c0-1.8-0.81-3.61-2.69-4.88c-2.73-1.84-4.59-4.22-5.66-6.81
			c-0.78-1.86-1.15-3.84-1.15-5.8c0-4.98,2.37-9.89,6.55-12.82c2.29-1.62,5.13-2.63,8.43-2.72c3.78-0.1,5.85-3.09,5.85-6.07
			C296.12,184.53,294.74,182.09,291.76,181.23z M160.81,256.9c-47.6,0-86.18-38.58-86.18-86.18c0-47.59,38.58-86.18,86.18-86.18
			c47.59,0,86.18,38.59,86.18,86.18C246.99,218.32,208.4,256.9,160.81,256.9z"/>
		<path class="st1" d="M292.17,179.79c-2.73-0.78-5.05-2.28-6.76-4.28c-2.01-2.32-3.2-5.32-3.3-8.63c-0.11-3.31,0.89-6.38,2.74-8.83
			c1.59-2.1,3.8-3.74,6.48-4.7c4.2-1.49,5.47-5.34,4.87-8.49c-0.61-3.15-3.2-6.27-7.66-6.1c-2.84,0.1-5.5-0.62-7.75-1.99
			c-2.63-1.59-4.69-4.07-5.81-7.19s-1.12-6.35-0.11-9.25c0.87-2.48,2.46-4.73,4.71-6.46c3.52-2.72,3.54-6.77,2-9.58
			c-1.55-2.81-4.98-4.97-9.17-3.44c-2.67,0.97-5.42,1.11-7.98,0.51c-2.99-0.71-5.72-2.43-7.75-5.05c-2.03-2.62-3.02-5.69-2.96-8.76
			c0.04-2.62,0.87-5.26,2.47-7.6c2.52-3.67,1.29-7.54-1.05-9.73c-2.35-2.2-6.27-3.19-9.78-0.44c-2.24,1.75-4.81,2.74-7.44,2.95
			c-3.06,0.26-6.18-0.54-8.92-2.4c-2.74-1.86-4.64-4.48-5.53-7.41c-0.77-2.52-0.8-5.28,0-8c1.26-4.28-1.11-7.57-4.01-8.93
			c-2.9-1.37-6.95-1.09-9.44,2.6c-1.58,2.36-3.72,4.09-6.15,5.1c-2.83,1.19-6.05,1.4-9.24,0.48c-3.19-0.93-5.8-2.83-7.55-5.35
			c-1.51-2.16-2.39-4.77-2.46-7.6c-0.12-4.45-3.39-6.85-6.58-7.25c-3.18-0.4-6.94,1.11-8.16,5.39c-0.79,2.73-2.29,5.05-4.29,6.76
			c-2.32,2.01-5.32,3.2-8.63,3.3c-3.31,0.1-6.37-0.9-8.82-2.74c-2.1-1.59-3.75-3.8-4.7-6.48c-1.5-4.2-5.35-5.47-8.5-4.87
			c-3.15,0.61-6.26,3.21-6.1,7.66c0.1,2.84-0.61,5.51-1.98,7.75c-1.6,2.62-4.09,4.69-7.2,5.81c-3.12,1.12-6.35,1.12-9.25,0.11
			c-2.48-0.87-4.73-2.46-6.46-4.71c-2.72-3.53-6.77-3.54-9.58-2c-2.81,1.55-4.97,4.98-3.44,9.17c0.97,2.67,1.12,5.42,0.52,7.98
			c-0.71,2.99-2.44,5.72-5.05,7.75c-2.62,2.03-5.69,3.02-8.76,2.96c-2.63-0.04-5.26-0.87-7.61-2.47c-3.68-2.52-7.53-1.29-9.73,1.05
			c-2.2,2.34-3.18,6.28-0.44,9.78c1.75,2.24,2.74,4.81,2.95,7.44c0.26,3.06-0.54,6.18-2.4,8.92s-4.48,4.64-7.41,5.53
			c-2.52,0.77-5.28,0.8-8,0c-4.27-1.26-7.56,1.11-8.93,4.01c-1.37,2.9-1.09,6.95,2.6,9.44c2.36,1.58,4.09,3.72,5.1,6.15
			c1.2,2.83,1.41,6.06,0.48,9.24c-0.92,3.19-2.83,5.8-5.35,7.55c-2.16,1.51-4.76,2.39-7.6,2.46c-4.45,0.12-6.85,3.39-7.25,6.58
			c-0.4,3.18,1.11,6.94,5.39,8.16c2.73,0.79,5.05,2.29,6.76,4.29c2.01,2.32,3.2,5.32,3.3,8.63c0.11,3.31-0.89,6.37-2.74,8.82
			c-1.58,2.1-3.8,3.75-6.48,4.7c-4.2,1.5-5.47,5.35-4.86,8.5c0.6,3.15,3.22,6.27,7.65,6.1c2.84-0.09,5.5,0.62,7.75,1.99
			c2.62,1.59,4.69,4.07,5.81,7.19c1.13,3.12,1.12,6.35,0.12,9.25c-0.87,2.48-2.46,4.73-4.71,6.46c-3.53,2.72-3.55,6.77-2,9.58
			c1.54,2.81,4.98,4.97,9.16,3.44c2.67-0.97,5.43-1.12,7.99-0.52c2.98,0.71,5.71,2.44,7.74,5.05c2.03,2.62,3.02,5.69,2.96,8.76
			c-0.04,2.64-0.86,5.26-2.47,7.61c-2.52,3.67-1.28,7.53,1.06,9.73c2.34,2.2,6.27,3.18,9.78,0.44c2.23-1.75,4.81-2.74,7.43-2.95
			c3.06-0.26,6.19,0.54,8.93,2.4c2.74,1.86,4.63,4.48,5.52,7.41c0.77,2.52,0.8,5.28,0,8c-1.26,4.27,1.11,7.56,4.01,8.93
			c2.9,1.36,6.95,1.09,9.44-2.6c1.58-2.35,3.72-4.09,6.15-5.1c2.83-1.2,6.05-1.41,9.24-0.48c3.19,0.92,5.8,2.83,7.55,5.35
			c1.5,2.16,2.38,4.76,2.46,7.6c0.13,4.45,3.39,6.85,6.58,7.25c0.32,0.04,0.66,0.06,0.99,0.06c2.94,0,6.08-1.61,7.18-5.45
			c0.78-2.73,2.28-5.05,4.28-6.76c2.32-2.01,5.32-3.2,8.63-3.3s6.38,0.9,8.83,2.74c2.1,1.6,3.74,3.81,4.7,6.48
			c1.49,4.19,5.34,5.47,8.49,4.86c3.15-0.6,6.26-3.2,6.1-7.65c-0.1-2.84,0.62-5.5,1.99-7.75c1.59-2.63,4.07-4.69,7.19-5.81
			s6.34-1.12,9.24-0.11c2.49,0.86,4.74,2.45,6.47,4.7c2.72,3.53,6.77,3.55,9.58,2c2.81-1.54,4.97-4.98,3.44-9.16
			c-0.97-2.67-1.11-5.42-0.51-7.98c0.71-2.99,2.43-5.72,5.05-7.75c2.62-2.03,5.69-3.02,8.76-2.96c2.62,0.04,5.26,0.87,7.6,2.47
			c3.67,2.52,7.54,1.28,9.73-1.06c2.2-2.34,3.18-6.27,0.44-9.77c-1.75-2.23-2.74-4.81-2.95-7.44c-0.26-3.06,0.54-6.19,2.4-8.93
			c1.86-2.74,4.48-4.63,7.41-5.52c1.27-0.39,2.6-0.59,3.95-0.59c1.34,0,2.7,0.19,4.05,0.59c4.28,1.26,7.57-1.11,8.93-4.01
			c1.37-2.91,1.09-6.95-2.6-9.44c-2.35-1.58-4.09-3.72-5.1-6.15c-1.2-2.83-1.41-6.05-0.48-9.24s2.83-5.8,5.35-7.55
			c2.16-1.5,4.77-2.38,7.6-2.46c4.45-0.13,6.85-3.39,7.25-6.58C297.96,184.78,296.45,181.02,292.17,179.79z M294.59,187.59
			c-0.23,1.77-1.5,3.87-4.36,3.95c-3.39,0.1-6.51,1.12-9.1,2.9c-3.14,2.13-5.51,5.34-6.65,9.28c-1.14,3.93-0.86,7.91,0.65,11.39
			c1.24,2.88,3.32,5.43,6.13,7.32c2.37,1.6,2.33,4.05,1.57,5.67c-0.62,1.32-1.98,2.63-3.94,2.63c-0.45,0-0.92-0.07-1.43-0.22
			c-3.25-0.96-6.54-0.94-9.56-0.05c-3.64,1.06-6.88,3.39-9.18,6.77s-3.26,7.25-2.9,11.03c0.28,3.13,1.48,6.19,3.57,8.86
			c1.76,2.26,0.96,4.58-0.27,5.88c-1.22,1.3-3.49,2.25-5.84,0.64c-2.8-1.92-5.93-2.92-9.07-3.01c-3.79-0.12-7.6,1.09-10.83,3.6
			c-3.24,2.51-5.35,5.89-6.18,9.59c-0.69,3.07-0.5,6.35,0.66,9.54c0.98,2.68-0.5,4.64-2.06,5.51c-1.57,0.86-4.02,1.06-5.76-1.21
			c-2.07-2.68-4.74-4.6-7.7-5.66c-3.57-1.28-7.56-1.31-11.41,0.08c-3.84,1.39-6.89,3.95-8.83,7.21c-1.61,2.7-2.44,5.88-2.32,9.28
			c0.1,2.86-1.92,4.26-3.67,4.6c-1.76,0.33-4.15-0.23-5.11-2.93c-1.14-3.19-3.08-5.85-5.56-7.77c-3-2.32-6.78-3.58-10.88-3.44
			c-4.09,0.13-7.79,1.62-10.63,4.12c-2.36,2.08-4.15,4.85-5.08,8.11c-0.78,2.75-3.13,3.46-4.91,3.24c-1.77-0.22-3.87-1.5-3.95-4.35
			c-0.1-3.39-1.12-6.51-2.9-9.1c-2.13-3.14-5.34-5.51-9.28-6.65c-1.62-0.48-3.25-0.7-4.86-0.7c-2.27,0-4.48,0.46-6.53,1.35
			c-2.88,1.24-5.42,3.32-7.32,6.13c-1.6,2.37-4.05,2.33-5.67,1.56c-1.62-0.76-3.22-2.62-2.41-5.36c0.96-3.25,0.94-6.55,0.05-9.56
			c-1.06-3.64-3.39-6.88-6.77-9.18c-3.39-2.3-7.26-3.27-11.03-2.9c-3.13,0.28-6.19,1.48-8.86,3.57c-2.26,1.76-4.58,0.96-5.88-0.27
			c-1.3-1.22-2.25-3.49-0.64-5.85c1.92-2.79,2.92-5.93,3.01-9.07c0.12-3.79-1.09-7.59-3.6-10.82c-2.51-3.24-5.89-5.35-9.59-6.18
			c-3.07-0.69-6.35-0.5-9.54,0.66c-2.68,0.98-4.64-0.5-5.51-2.07c-0.86-1.56-1.06-4.01,1.21-5.75c2.68-2.07,4.6-4.74,5.66-7.7
			c1.28-3.57,1.31-7.56-0.08-11.41c-1.39-3.85-3.95-6.9-7.21-8.84c-2.71-1.6-5.89-2.44-9.28-2.32c-2.83,0.14-4.26-1.91-4.6-3.66
			c-0.33-1.76,0.23-4.15,2.93-5.11c3.19-1.13,5.84-3.08,7.77-5.57c2.31-3,3.57-6.79,3.44-10.88c-0.13-4.09-1.62-7.78-4.13-10.62
			c-2.07-2.37-4.84-4.15-8.1-5.08c-2.75-0.79-3.47-3.14-3.24-4.91c0.22-1.77,1.5-3.87,4.35-3.95c3.39-0.09,6.51-1.12,9.1-2.9
			c3.14-2.13,5.51-5.34,6.65-9.28c1.14-3.93,0.87-7.91-0.64-11.39c-1.25-2.89-3.33-5.43-6.14-7.32c-2.37-1.6-2.33-4.06-1.56-5.67
			c0.76-1.62,2.62-3.22,5.36-2.42c3.25,0.96,6.54,0.94,9.56,0.06c3.64-1.06,6.88-3.39,9.18-6.77c2.3-3.38,3.26-7.25,2.9-11.03
			c-0.28-3.13-1.48-6.19-3.57-8.87c-1.76-2.25-0.96-4.57,0.27-5.87c1.22-1.31,3.49-2.25,5.85-0.64c2.79,1.92,5.93,2.92,9.07,3.01
			c3.79,0.12,7.59-1.09,10.83-3.6c3.24-2.51,5.35-5.9,6.17-9.6c0.69-3.07,0.5-6.35-0.66-9.53c-0.98-2.69,0.5-4.65,2.06-5.51
			c1.57-0.86,4.02-1.06,5.76,1.2c2.07,2.68,4.74,4.61,7.7,5.66c3.57,1.29,7.56,1.32,11.41-0.07c3.85-1.39,6.9-3.95,8.84-7.21
			c1.6-2.71,2.44-5.89,2.32-9.28c-0.11-2.86,1.91-4.26,3.66-4.6c1.76-0.33,4.15,0.23,5.11,2.92c1.14,3.2,3.09,5.85,5.58,7.78
			c3,2.31,6.78,3.57,10.87,3.44c4.09-0.13,7.78-1.62,10.62-4.13c2.37-2.07,4.15-4.84,5.08-8.11c0.79-2.74,3.14-3.46,4.91-3.24
			c1.77,0.23,3.87,1.5,3.95,4.36c0.09,3.39,1.12,6.5,2.9,9.1c2.13,3.14,5.34,5.51,9.28,6.65c3.93,1.14,7.91,0.86,11.39-0.65
			c2.88-1.24,5.43-3.32,7.32-6.13c1.6-2.37,4.06-2.33,5.67-1.57c1.62,0.76,3.22,2.63,2.42,5.37c-0.96,3.25-0.94,6.54-0.06,9.56
			c1.06,3.64,3.39,6.88,6.77,9.18c3.38,2.3,7.25,3.26,11.03,2.9c3.13-0.28,6.19-1.48,8.87-3.57c2.25-1.76,4.57-0.96,5.87,0.27
			c1.31,1.22,2.25,3.48,0.64,5.84c-1.92,2.8-2.92,5.93-3.01,9.07c-0.12,3.79,1.09,7.6,3.6,10.83c2.51,3.24,5.9,5.35,9.6,6.18
			c3.06,0.69,6.35,0.5,9.53-0.66c2.69-0.98,4.65,0.5,5.51,2.06c0.86,1.57,1.06,4.02-1.2,5.76c-2.68,2.07-4.61,4.74-5.66,7.7
			c-1.29,3.57-1.32,7.56,0.07,11.41s3.95,6.9,7.21,8.83c2.7,1.61,5.88,2.44,9.28,2.32c2.85-0.09,4.26,1.92,4.6,3.67
			c0.33,1.76-0.23,4.15-2.92,5.11c-3.2,1.14-5.85,3.08-7.78,5.57c-2.31,3-3.57,6.78-3.44,10.87c0.13,4.08,1.62,7.78,4.13,10.62
			c2.07,2.37,4.84,4.15,8.11,5.09C294.09,183.46,294.81,185.81,294.59,187.59z"/>
	</g>
	<g>
		<path d="M157.46,167.04c0,22.37-0.01,44.74,0.02,67.11c0,1.08-0.28,1.4-1.36,1.37c-4.87-0.14-9.76,0.29-14.61-0.2
			c-7.9-0.78-13.23-6.74-13.32-14.67c-0.04-3.92-0.01-7.84-0.01-11.75c0-22.74-0.01-45.47,0.01-68.21c0-5.94,2.69-10.37,7.82-13.3
			c1.84-1.05,3.87-1.57,6-1.62c1.59-0.04,3.19-0.12,4.78-0.01c1.15,0.08,1.35-0.37,1.35-1.38c-0.03-8.16,0.01-16.31-0.06-24.47
			c-0.01-1.31,0.33-1.74,1.65-1.67c2.04,0.11,4.1,0.1,6.15,0.01c1.22-0.06,1.61,0.22,1.61,1.54
			C157.44,122.21,157.46,144.62,157.46,167.04z M148.11,180.56C148.11,180.56,148.11,180.56,148.11,180.56
			c0-14.49,0-28.97-0.01-43.46c0-0.41-0.01-0.82-0.01-1.23c0-0.34-0.07-0.71-0.48-0.69c-2.39,0.09-4.86-0.55-7.14,0.56
			c-2.26,1.11-2.88,3.02-2.87,5.5c0.07,25.33,0.04,50.66,0.04,75.99c0,1.32-0.03,2.64,0.01,3.96c0.08,2.55,2.11,4.66,4.67,4.81
			c1.23,0.07,2.46,0.05,3.69,0.05c2.1,0.01,2.1,0,2.1-2.16C148.11,209.44,148.11,195,148.11,180.56z"/>
		<path d="M173.63,160.33c2.08-3.14,4.17-6.27,6.22-9.42c1.08-1.65,2.09-3.36,3.16-5.01c0.44-0.68,0.62-1.39,0.62-2.19
			c-0.01-5.24,0-10.48,0-15.72c0-0.18,0.01-0.37-0.01-0.55c-0.2-1.86-0.2-1.86,1.78-1.86c2.23,0,4.47,0,6.7-0.01
			c1.01,0,1.55,0.27,1.28,1.47c-0.19,0.83-0.1,1.72-0.11,2.58c-0.01,5.47-0.07,10.94,0.04,16.41c0.03,1.63-0.46,2.95-1.37,4.16
			c-4.48,5.98-8.31,12.39-12.55,18.52c-0.44,0.63-0.35,1.07,0.07,1.69c4.37,6.59,8.7,13.22,13.06,19.82c0.5,0.76,0.7,1.53,0.7,2.43
			c-0.02,13.76-0.03,27.53,0.01,41.29c0,1.38-0.43,1.67-1.73,1.59c-2.13-0.13-4.28-0.11-6.42-0.02c-1.12,0.05-1.36-0.33-1.36-1.39
			c0.03-12.62,0-25.25,0.03-37.87c0-1.5-0.23-2.79-1.15-4.07c-2.99-4.18-5.57-8.64-8.63-12.78c-0.13-0.17-0.2-0.41-0.51-0.42
			c-0.36,0.31-0.19,0.75-0.19,1.13c-0.01,18.09-0.02,36.18,0.01,54.28c0,0.81-0.11,1.12-1.01,1.1c-2.55-0.03-5.1,0.03-7.65,0.08
			c-0.76,0.02-0.79-0.45-0.78-0.98c0.02-1.23,0.07-2.46,0.07-3.69c0.01-43.57,0.01-87.13,0.01-130.7c0-0.41-0.04-0.82-0.04-1.23
			c0-0.55,0.2-0.77,0.83-0.75c2.41,0.06,4.83,0.09,7.24,0.01c1.13-0.04,1.34,0.38,1.34,1.42c-0.03,19.6-0.02,39.19-0.02,58.79
			c0,0.58,0,1.16,0,1.74C173.38,160.24,173.51,160.29,173.63,160.33z"/>
	</g>
</g>
</svg>
